<svg xmlns="http://www.w3.org/2000/svg" width="70" height="70" viewBox="0 0 70 70">
  <g id="_005-teacher-1" data-name="005-teacher-1" transform="translate(-5 -1)">
    <path id="Path_1" data-name="Path 1" d="M62.2,53.261,48.9,48.522a3.406,3.406,0,0,1-2.411-3.135v-.811a21.635,21.635,0,0,0,8.762-9.705h.312c3.578,0,6.478-2.529,6.482-5.645V19.518C62.043,9.286,52.517.994,40.772,1H36.344c-7.859-.02-15.178,3.478-19.38,9.262l-3.37,4.613,1.356.785a5.724,5.724,0,0,1,3.013,4.9v8.661c0,3.117,2.9,5.642,6.482,5.645h.312a21.629,21.629,0,0,0,8.762,9.705v.811a3.4,3.4,0,0,1-2.411,3.134l-13.3,4.739C10.048,56,4.98,62.576,5,69.871V71H75V69.871c.02-7.292-5.046-13.865-12.8-16.61Zm-10.641,3.7L46.286,60.4l3.492-9.126.738.262Zm-22.072-5.42.738-.262L33.714,60.4l-5.272-3.443Zm4.363,9.217,3.059,7.992h-.259l-5.35-4.66ZM32.611,50.388c.19-.086.378-.177.555-.278L40,56.914l6.831-6.8c.178.1.364.191.555.278l-7.02,18.354h-.726ZM46.154,60.755,48.7,64.087l-5.35,4.66H43.09Zm.328-38.3a5.346,5.346,0,0,0-4.465,2.257H37.983a5.346,5.346,0,0,0-4.465-2.257H25.741V16.833a32.139,32.139,0,0,1,10.492,2.134,35.189,35.189,0,0,0,12.744,2.354H54.26V22.45Zm5.185,2.257v2.257a2.446,2.446,0,0,1-2.6,2.255H46.482a2.443,2.443,0,0,1-2.593-2.258,2.443,2.443,0,0,1,2.593-2.258ZM36.111,26.968a2.445,2.445,0,0,1-2.592,2.257H30.926a2.445,2.445,0,0,1-2.592-2.257V24.71h5.184a2.445,2.445,0,0,1,2.593,2.257Zm19.981,5.6a18.424,18.424,0,0,0,.759-5.2V26.047a3.38,3.38,0,0,1,2.573,3.52,3.627,3.627,0,0,1-3.332,3ZM17.121,14.253l2.029-2.779C22.879,6.343,29.372,3.24,36.344,3.258H40.78c10.309,0,18.665,7.283,18.665,16.262v5.218A6.89,6.89,0,0,0,56.852,23.7v-4.63H48.977a32.255,32.255,0,0,1-11.7-2.161,35.307,35.307,0,0,0-12.841-2.355h-1.3V23.7a6.9,6.9,0,0,0-2.592,1.043V20.565a7.78,7.78,0,0,0-3.434-6.312Zm3.434,14.972a3.45,3.45,0,0,1,2.592-3.179v1.321a18.432,18.432,0,0,0,.76,5.2,3.578,3.578,0,0,1-3.351-3.343Zm5.185-1.867v-.4c0,2.493,2.323,4.514,5.185,4.516h2.592c2.862,0,5.182-2.023,5.185-4.516h2.6c0,2.493,2.323,4.514,5.185,4.516H49.07c2.862,0,5.182-2.023,5.185-4.516v.4c.01,7.907-5.7,14.962-14.255,17.61-8.553-2.646-14.265-9.7-14.259-17.6ZM39.59,47.231l.41.117.41-.117a26.29,26.29,0,0,0,3.524-1.3,5.161,5.161,0,0,0,1.042,2.594L40,53.477l-4.978-4.954a5.172,5.172,0,0,0,1.042-2.593,26.153,26.153,0,0,0,3.526,1.3Zm-20.8,8.12,7.876-2.807-1.034,5.4L30.463,61.1l-2.5,3.267,5.022,4.371H20.556V61.968H17.962v6.774H7.638c.477-5.951,4.8-11.146,11.149-13.39ZM62.037,68.742V61.968H59.444v6.774H47.018l5.02-4.373-2.5-3.267,4.834-3.158-1.033-5.4,7.876,2.807c6.346,2.244,10.672,7.439,11.149,13.39H62.037Z" transform="translate(0 0)" fill="#fff"/>
    <path id="Path_2" data-name="Path 2" d="M35.742,32H33.806a1.935,1.935,0,1,1-3.871,0H28a3.871,3.871,0,0,0,7.742,0Z" transform="translate(8.129 4.345)" fill="#fff"/>
    <path id="Path_3" data-name="Path 3" d="M38.834,9.14a10.149,10.149,0,0,1,2.048,2.21l1.6-1.089A12.03,12.03,0,0,0,32.545,5H31V6.935h1.545A10.114,10.114,0,0,1,38.834,9.14Z" transform="translate(10.109 -0.129)" fill="#fff"/>
    <path id="Path_4" data-name="Path 4" d="M42.752,15.126l1.892-.406a12.046,12.046,0,0,0-.658-2.1l-1.786.74a10.167,10.167,0,0,1,.552,1.766Z" transform="translate(11.622 1.581)" fill="#fff"/>
  </g>
</svg>
