<svg xmlns="http://www.w3.org/2000/svg" width="70" height="70" viewBox="0 0 70 70">
  <g id="_007-student" data-name="007-student" transform="translate(-19.842)">
    <path id="Path_5" data-name="Path 5" d="M22.885,70H86.344a3.384,3.384,0,0,0,3.5-3.249V65.1a1.57,1.57,0,0,0-1.626-1.505H86.825a3.585,3.585,0,0,0,.436-1.7V40.5a4.043,4.043,0,0,0-4.187-3.87H68.687a1.029,1.029,0,1,0,0,2.051H83.074a1.9,1.9,0,0,1,1.97,1.819V61.9a1.844,1.844,0,0,1-1.279,1.7H49.777A1.849,1.849,0,0,1,48.5,61.9V40.5a1.9,1.9,0,0,1,1.969-1.816H63.5a1.029,1.029,0,1,0,0-2.051H55.316V34a10.634,10.634,0,0,0,4.7-7.4,5.17,5.17,0,0,0,5.043-4.839,4.987,4.987,0,0,0-2.386-4.181,2.676,2.676,0,0,0,.24-1.107V14.467a1.115,1.115,0,0,0-2.223,0v2.01a.806.806,0,0,1-.28.6.95.95,0,0,1-.665.231,2.642,2.642,0,0,1-2.7-2.522,1.231,1.231,0,0,0-.991-1.173,1.353,1.353,0,0,0-1.474.6A6.424,6.424,0,0,1,49,17.311H36.27a1.96,1.96,0,0,1-2.023-1.867V7.9a6.115,6.115,0,0,1,6.34-5.849H51.8c2.6,0,3.044,1.06,3.294,2.242a3.066,3.066,0,0,0,3.3,2.254,2.336,2.336,0,0,1,1.623.579A1.982,1.982,0,0,1,60.7,8.6v1.08a1.115,1.115,0,0,0,2.223,0V8.6A3.961,3.961,0,0,0,61.528,5.62,4.674,4.674,0,0,0,58.221,4.5a.858.858,0,0,1-.951-.6C56.716,1.276,54.923,0,51.794,0H40.582c-4.726.005-8.556,3.538-8.562,7.9v7.544A3.758,3.758,0,0,0,33.252,18.2a4.575,4.575,0,0,0-1.414,5.229A5.207,5.207,0,0,0,36.562,26.6a10.516,10.516,0,0,0,4.7,7.383v2.651L26.335,42.008l-.019.007a10.1,10.1,0,0,0-6.474,9.227V67.2A2.932,2.932,0,0,0,22.877,70ZM60.1,19.347a3.422,3.422,0,0,0,.986-.25,3.012,3.012,0,0,1,1.749,2.667A3,3,0,0,1,60.1,24.529ZM36.482,24.531a2.986,2.986,0,0,1-2.734-2.754,3.008,3.008,0,0,1,1.631-2.5,5.026,5.026,0,0,0,1.1.093ZM87.619,65.649v1.1a1.24,1.24,0,0,1-1.275,1.2H47.195a1.24,1.24,0,0,1-1.275-1.2v-1.1ZM50.466,36.633A4.153,4.153,0,0,0,46.4,39.55l-2.933-2.705c.011-.17.009.142.009-1.686a13.341,13.341,0,0,0,4.962.918,12.428,12.428,0,0,0,4.65-.895v1.451ZM38.705,25.317v-5.95H49a8.9,8.9,0,0,0,6.324-2.585A4.838,4.838,0,0,0,57.847,19l.034.014v6.3A8.568,8.568,0,0,1,53.6,32.6c-6.367,3.72-14.9-.268-14.9-7.285Zm3.445,13.2,4.13,3.809v1.959L45.171,45.31a.4.4,0,0,1-.531,0l-5.994-5.53ZM22.065,51.245a8.119,8.119,0,0,1,5.089-7.327L36.38,40.6l6.679,6.16a2.763,2.763,0,0,0,3.212.337V61.9a3.642,3.642,0,0,0,.434,1.7H45.323A1.57,1.57,0,0,0,43.7,65.1v1.647a3.068,3.068,0,0,0,.247,1.2H31.424V52.682a1.115,1.115,0,0,0-2.223,0V55.2H22.065Zm0,6.006H29.2V59.8H22.065Zm0,4.6H29.2v6.1H22.885a.788.788,0,0,1-.819-.749Z" transform="translate(0 0)" fill="#fff"/>
    <path id="Path_6" data-name="Path 6" d="M246.384,304.631a1.521,1.521,0,0,0,0,2.72l2.029,1.017v4.818a2.192,2.192,0,0,0,1.144,1.937,12.9,12.9,0,0,0,12.215,0,2.159,2.159,0,0,0,.6-.477l-.058.223a1.809,1.809,0,0,0,1.75,2.268h1.69a1.809,1.809,0,0,0,1.75-2.268h0l-.376-1.433a2.218,2.218,0,0,0-1.34-1.5v-5.947a1.513,1.513,0,0,0-.84-1.36l-8.237-4.127a2.341,2.341,0,0,0-2.088,0Zm18.523,8.9a.5.5,0,0,1,.519.349l.376,1.433a.051.051,0,0,1-.05.064h-1.69a.051.051,0,0,1-.05-.064l.376-1.433a.491.491,0,0,1,.519-.349Zm-1.99-5.164,1.111-.557v4.126a2.239,2.239,0,0,0-1.111.947Zm-1.758,4.818a.443.443,0,0,1-.221.39,11.14,11.14,0,0,1-10.547,0,.443.443,0,0,1-.221-.39v-3.937l4.45,2.23a2.341,2.341,0,0,0,2.088,0l4.45-2.23Zm-5.238-11.109,6.06,3.036h-6.317a.879.879,0,0,0,0,1.758h6.317l-6.06,3.036a.575.575,0,0,1-.513,0l-7.814-3.915,7.814-3.915a.575.575,0,0,1,.513,0Z" transform="translate(-184.602 -255.071)" fill="#fff"/>
  </g>
</svg>
