<svg xmlns="http://www.w3.org/2000/svg" width="70" height="70" viewBox="0 0 70 70">
  <g id="_008-rating" data-name="008-rating" transform="translate(-0.005 -54.731)">
    <path id="Path_7" data-name="Path 7" d="M21.689,81.025a9.755,9.755,0,0,1,2.546,1.867V78.434a6.79,6.79,0,0,1,1.633-4.38,9.563,9.563,0,0,1,2.919-2.317,10.61,10.61,0,0,1-.626-3.623V60.179c.01-3,1.921-5.436,4.283-5.448h5.128c2.363.008,4.277,2.442,4.283,5.448v7.935a10.658,10.658,0,0,1-.627,3.634,9.519,9.519,0,0,1,2.9,2.282,6.823,6.823,0,0,1,1.651,4.4v4.462a9.757,9.757,0,0,1,2.554-1.874A10.666,10.666,0,0,1,47.7,77.4V69.468c.01-3.006,1.924-5.438,4.287-5.448h5.124c2.363.008,4.277,2.442,4.283,5.448V77.4a10.617,10.617,0,0,1-.62,3.617,9.657,9.657,0,0,1,2.972,2.342,6.774,6.774,0,0,1,1.632,4.368v9.579h3.6A1.192,1.192,0,0,1,70,98.615a1.513,1.513,0,0,1-.228.817l-3.761,6.954,3.806,7.04a1.54,1.54,0,0,1-.26,1.81.9.9,0,0,1-.582.233H46.528l.38,6.2a3.177,3.177,0,0,1-.973,2.564,1.844,1.844,0,0,1-2.232.216l-8.7-4.571-8.825,4.635a1.956,1.956,0,0,1-2.608-.877,3.49,3.49,0,0,1-.473-1.967l.38-6.2H16.14a1.352,1.352,0,0,1,0-2.608h7.5l.2-3.3L17.7,100.405a2.592,2.592,0,0,1-.283-.492H2.973l3.092,5.718a1.6,1.6,0,0,1,.007,1.5l-3.1,5.734H11.5a1.352,1.352,0,0,1,0,2.608H1.028a1.039,1.039,0,0,1-.923-.744,1.6,1.6,0,0,1,.129-1.381l3.759-6.959L.184,99.35a1.615,1.615,0,0,1-.053-1.366,1.013,1.013,0,0,1,.933-.68H4.652V90.683a1.19,1.19,0,0,1,1.025-1.3,1.19,1.19,0,0,1,1.025,1.3V97.3H17.321a2.88,2.88,0,0,1,.659-1.05,2.3,2.3,0,0,1,.977-.562l5.279-1.622V87.725a3.915,3.915,0,0,0-1.009-2.5,7.642,7.642,0,0,0-2.69-1.977,6.288,6.288,0,0,1-5.068,2.864A6.288,6.288,0,0,1,10.4,83.244a7.216,7.216,0,0,0-3.1,2.539.885.885,0,0,1-1.441.2,1.556,1.556,0,0,1-.156-1.833,9.139,9.139,0,0,1,3.538-3.131A10.666,10.666,0,0,1,8.622,77.4V69.467c.01-3.006,1.924-5.438,4.287-5.448h8.383a1.192,1.192,0,0,1,1.023,1.307V77.4a10.676,10.676,0,0,1-.625,3.624ZM59.35,75.266l-5.79-2.495-3.8,2.371V77.4c0,3.368,2.146,6.1,4.794,6.1s4.794-2.73,4.794-6.1Zm-9.59-3.016,3.221-2.007a.827.827,0,0,1,.838-.109l5.531,2.382V69.465a2.6,2.6,0,0,0-2.232-2.84H51.992a2.6,2.6,0,0,0-2.232,2.84V72.25Zm-39.09-1.7h9.592V66.625H12.907a2.61,2.61,0,0,0-2.236,2.84Zm9.592,2.608H10.67V77.4c0,3.369,2.147,6.1,4.8,6.1s4.8-2.731,4.8-6.1ZM39.8,65.772a6.405,6.405,0,0,1-6.224-2.1,4.692,4.692,0,0,1-3.368,1.01v3.432c0,3.369,2.147,6.1,4.8,6.1s4.8-2.731,4.8-6.1V65.78ZM30.207,62.06a3.058,3.058,0,0,0,2.816-1.07.88.88,0,0,1,1.442.133A4.753,4.753,0,0,0,39.8,63.139V60.171a2.612,2.612,0,0,0-2.233-2.84H32.438a2.612,2.612,0,0,0-2.233,2.84ZM49.485,83.238a7.733,7.733,0,0,0-2.744,2.028,3.885,3.885,0,0,0-.965,2.45v6.348l5.4,1.662A2.531,2.531,0,0,1,52.687,97.3H63.333V87.725a3.89,3.89,0,0,0-.992-2.48,7.643,7.643,0,0,0-2.721-2c-.073.1-.151.207-.228.306a5.851,5.851,0,0,1-9.674,0q-.122-.148-.233-.31ZM29.947,73.961a7.613,7.613,0,0,0-2.667,1.984,3.914,3.914,0,0,0-.993,2.49v15l1.814-.557,5-10.348a2.023,2.023,0,0,1,3.829.02l4.988,10.328,1.81.557v-15a3.907,3.907,0,0,0-1.009-2.509,7.687,7.687,0,0,0-2.651-1.967A6.281,6.281,0,0,1,35,76.813a6.281,6.281,0,0,1-5.06-2.857ZM52.589,99.911a2.916,2.916,0,0,1-.24.424l-1.721,2.574a.926.926,0,0,1-.979.482,1.137,1.137,0,0,1-.8-.869,1.57,1.57,0,0,1,.224-1.3L50.8,98.645a.313.313,0,0,0,.035-.233.21.21,0,0,0-.132-.158Q45.89,96.778,41.1,95.3a1.034,1.034,0,0,1-.709-.6L35.178,83.919a.2.2,0,0,0-.162-.133.184.184,0,0,0-.171.113L29.629,94.7a1.087,1.087,0,0,1-.636.583q-4.782,1.463-9.556,2.935c-.1.035-.2.035-.248.163a.294.294,0,0,0,.023.266l6.421,9.589a1.508,1.508,0,0,1,.275,1q-.383,6.315-.771,12.64a.275.275,0,0,0,.08.212.16.16,0,0,0,.183.03l9.209-4.837a.812.812,0,0,1,.779,0l9.1,4.777c.151.069.4.158.376-.182q-.383-6.323-.771-12.64a1.563,1.563,0,0,1,.244-.946l1.725-2.567a.877.877,0,0,1,1.424-.117,1.559,1.559,0,0,1,.13,1.807l-1.446,2.159.2,3.3H67.034l-3.092-5.718a1.592,1.592,0,0,1-.007-1.494l3.1-5.739Z" transform="translate(0 0)" fill="#fff"/>
  </g>
</svg>
