<svg xmlns="http://www.w3.org/2000/svg" width="70" height="70" viewBox="0 0 70 70">
  <g id="_009-family" data-name="009-family" transform="translate(-1 -1)">
    <path id="Path_8" data-name="Path 8" d="M19.84,28.861a4.987,4.987,0,0,0,4.739-3.416l.049-.149-1.836-.613-.049.15a3.06,3.06,0,0,1-5.806,0l-.049-.149-1.836.613.049.148a4.987,4.987,0,0,0,4.739,3.417Z" transform="translate(2.244 3.342)" fill="#fff"/>
    <path id="Path_9" data-name="Path 9" d="M31.84,51.861a4.987,4.987,0,0,0,4.739-3.416l.049-.149-1.836-.613-.049.15a3.06,3.06,0,0,1-5.806,0l-.049-.149-1.836.613.049.148a4.987,4.987,0,0,0,4.739,3.417Z" transform="translate(4.16 6.587)" fill="#fff"/>
    <path id="Path_10" data-name="Path 10" d="M48.793,23.684l-.049.149a3.06,3.06,0,0,1-5.806,0l-.049-.149-1.836.613.049.148a4.995,4.995,0,0,0,9.478,0l.049-.149Z" transform="translate(6.395 3.2)" fill="#fff"/>
    <path id="Path_11" data-name="Path 11" d="M69.017,43.966a11.8,11.8,0,0,0-2.528-2.731V19.257A13.757,13.757,0,0,0,52.743,5.516,8.774,8.774,0,0,0,46.83,7.784a10.163,10.163,0,0,0-8.167,4.808A11.481,11.481,0,0,0,36,8.44L34.844,7.284A6.719,6.719,0,0,0,28.153,1H22.261A12.825,12.825,0,0,0,11.528,6.862l-.233.091A9.2,9.2,0,0,0,5.988,18.407L7.8,23.843A4.509,4.509,0,0,0,12.291,28.1h.067a10.17,10.17,0,0,0,4.45,7.314v4.2l-6.06,1.348A12.446,12.446,0,0,0,1,53.107V71H71V50.532a11.8,11.8,0,0,0-1.983-6.565Zm-.269,6.565v5.791H64.226V51.806H61.968V68.743H53.606a13.287,13.287,0,0,0-10.894-6.748,11.34,11.34,0,0,0,3.418-4.105l.168.168a5.607,5.607,0,0,0,3.991,1.653h5.34l-1.466-4.4a6.767,6.767,0,0,0-4.293-4.287l.1-.3a13.631,13.631,0,0,0,.156-8.167,6.614,6.614,0,0,0,1.68.223,6.533,6.533,0,0,0,4.653-1.927l.271-.271,3.617.453a9.578,9.578,0,0,1,8.389,9.5Zm-47.383-4.99c-.016.275-.042.548-.042.828v.154l-3.734,1.493L16.1,42.077l1.472-.328Zm2.9,7.394h.447a11.26,11.26,0,0,0,.315,2.605l-.92.92a3.41,3.41,0,0,1-2.4.992H19.5l.476-1.428a4.509,4.509,0,0,1,4.285-3.088Zm.447-3.646v1.387h-.315l-.224-.671A11.5,11.5,0,0,1,35.078,34.869h1.84A11.5,11.5,0,0,1,47.83,50l-.225.672H47.29v-.36a5.678,5.678,0,0,0-5.176-5.62l-6.252-.525a2.312,2.312,0,0,1-.539-4.5l1.035-.35-.715-2.142-1.034.35a4.563,4.563,0,0,0-3.125,4.334,2.838,2.838,0,0,0,.016.373l-1.876.537a6.8,6.8,0,0,0-4.914,6.514Zm7.908-27.967a2.258,2.258,0,0,1,0,4.516ZM32.55,28.1h.067A4.508,4.508,0,0,0,37.1,23.913l.034-.068v8.776c-.07,0-.139-.011-.209-.011H35.079a13.67,13.67,0,0,0-4.877.909,10.109,10.109,0,0,0,2.343-5.425Zm19.26,5.646a7.912,7.912,0,0,1-7.9-7.9V22.157a6.735,6.735,0,0,1,3.36-5.85,7.883,7.883,0,0,0,6.8,3.886h3.383a2.26,2.26,0,0,1,2.257,2.257v3.383a7.912,7.912,0,0,1-7.9,7.9Zm0,2.257a10.1,10.1,0,0,0,2.616-.35l.674,3.37-.233.233a4.426,4.426,0,0,1-6.112,0l-.206-.206A.393.393,0,0,1,48.524,39l.672-3.357a10.053,10.053,0,0,0,2.616.35ZM47.29,52.935h.447a4.509,4.509,0,0,1,4.285,3.088l.476,1.428H50.29a3.41,3.41,0,0,1-2.4-.992l-.92-.92a11.259,11.259,0,0,0,.315-2.605ZM26.968,49.289a4.536,4.536,0,0,1,3.275-4.342l2-.572a4.586,4.586,0,0,0,3.429,2.045l6.252.52a3.407,3.407,0,0,1,3.107,3.376v2.618a9.032,9.032,0,1,1-18.065,0ZM41.974,64.223a11.042,11.042,0,0,1,8.93,4.516H21.1a11.043,11.043,0,0,1,8.93-4.516Zm5.315-54.19h.467l.331-.331a6.533,6.533,0,0,1,4.654-1.927A11.5,11.5,0,0,1,64.225,19.257V39.835a11.852,11.852,0,0,0-3.593-1.05l-3.362-.421-.712-3.554a10.162,10.162,0,0,0,5.409-8.974V22.453a4.521,4.521,0,0,0-4.516-4.516H54.067a5.646,5.646,0,0,1-5.646-5.646h-2.26a7.828,7.828,0,0,0,.233,1.91,8.983,8.983,0,0,0-4.753,7.957v3.681a10.165,10.165,0,0,0,5.409,8.975l-.375,1.872a13.728,13.728,0,0,0-7.293-3.836V17.935a7.912,7.912,0,0,1,7.9-7.9ZM32.9,12.467a6.694,6.694,0,0,0,1.538-2.4,9.282,9.282,0,0,1,1.707,10.687l-.015.028a4.491,4.491,0,0,0-3.515-1.722h-.911l-3.251-1.3a2.351,2.351,0,0,1-1.486-2.193,2.151,2.151,0,0,1,4.193-.681l.382,1.143,2.142-.715L33.3,14.175a4.424,4.424,0,0,0-.75-1.358ZM12.138,9.05l.925-.37.195-.327a10.552,10.552,0,0,1,9-5.1h5.893A4.459,4.459,0,0,1,31.3,10.87l-.6.6A4.369,4.369,0,0,0,24.785,14.8l-2.819.805a31.1,31.1,0,0,1-8.549,1.2,1.129,1.129,0,0,1,0-2.258h1.129V12.29H13.417a3.383,3.383,0,0,0-1.129,6.566v.208A4.5,4.5,0,0,0,9.05,20.448l-.919-2.756A6.945,6.945,0,0,1,12.138,9.05Zm-2.1,14.53A2.26,2.26,0,0,1,12.3,21.322v4.516a2.26,2.26,0,0,1-2.263-2.258Zm4.516,3.383V19.025a33.367,33.367,0,0,0,8.029-1.245l2.388-.683a4.591,4.591,0,0,0,2.639,2.764l2.74,1.1v6.01a7.9,7.9,0,0,1-15.806,0Zm7.9,10.162a10.1,10.1,0,0,0,2.842-.412,13.743,13.743,0,0,0-3.483,6.077l-2.752-2.742V36.537a10.089,10.089,0,0,0,3.387.593ZM6.242,45.9a10.17,10.17,0,0,1,4.993-2.742l2.661-.591,2.127,8.507,5.535-2.217a13.637,13.637,0,0,0,.467,1.857l.1.3a6.767,6.767,0,0,0-4.293,4.287l-1.465,4.4h5.34A5.608,5.608,0,0,0,25.7,58.053l.168-.168a11.352,11.352,0,0,0,3.418,4.106,13.285,13.285,0,0,0-10.894,6.748H10.032v-15.8H7.774v4.516H3.257V53.107A10.121,10.121,0,0,1,6.242,45.9ZM3.257,59.71H7.774v9.032H3.257Zm60.968,9.032V58.581h4.516V68.743Z" transform="translate(0 0)" fill="#fff"/>
  </g>
</svg>
