<svg xmlns="http://www.w3.org/2000/svg" xmlns:xlink="http://www.w3.org/1999/xlink" width="631" height="104" viewBox="0 0 631 104">
  <defs>
    <linearGradient id="linear-gradient" x1="-141.869" y1="45.659" x2="-139.473" y2="45.659" gradientUnits="objectBoundingBox">
      <stop offset="0" stop-color="#fff"/>
      <stop offset="0.04" stop-color="#fdede1"/>
      <stop offset="0.127" stop-color="#f8bf94"/>
      <stop offset="0.247" stop-color="#f17b21"/>
      <stop offset="1" stop-color="#f37920"/>
    </linearGradient>
    <linearGradient id="linear-gradient-2" x1="-173.038" y1="48.585" x2="-170.309" y2="48.585" gradientUnits="objectBoundingBox">
      <stop offset="0" stop-color="#fff"/>
      <stop offset="0.087" stop-color="#fde9d7"/>
      <stop offset="0.206" stop-color="#fbcea7"/>
      <stop offset="0.33" stop-color="#f9b87e"/>
      <stop offset="0.455" stop-color="#f7a55d"/>
      <stop offset="0.583" stop-color="#f69743"/>
      <stop offset="0.714" stop-color="#f58d30"/>
      <stop offset="0.85" stop-color="#f58625"/>
      <stop offset="1" stop-color="#f58522"/>
    </linearGradient>
  </defs>
  <g id="Group_14516" data-name="Group 14516" transform="translate(0.005 0.09)">
    <path id="Path_18653" data-name="Path 18653" d="M6.668,1.8V-6.071h4.3c3.062,0,4.418,1.473,4.418,3.953,0,2.4-1.356,3.914-4.418,3.914Zm14.3-3.914c0-4.689-3.255-8.371-9.766-8.371H1.242V16.562H6.668V6.176H11.2C18.178,6.176,20.968,1.99,20.968-2.118Zm22.206,18.68H48.91L39.183-10.527H32.866L23.138,16.562h5.7l1.783-5.154H41.392ZM39.919,7.067H32.091L36-4.249ZM66.892-2.079c0,2.442-1.356,4.03-4.379,4.03H57.978V-5.993h4.534C65.536-5.993,66.892-4.482,66.892-2.079Zm-14.339-8.41V16.562h5.426V6.021h2.558L66.5,16.562h6.278L66.311,5.595A7.811,7.811,0,0,0,72.473-2.2c0-4.534-3.255-8.293-9.766-8.293Zm40.537-.039h-15.7V16.562h15.7V12.144H82.82V4.974h9.107V.673H82.82V-6.109H93.09Zm22.633,0v18.6l-12.285-18.6H98.012V16.562h5.426V-2l12.285,18.563h5.426V-10.527Zm9.34,4.418h7.208V16.562H137.7V-6.109H144.9v-4.379H125.062Zm23.059-.039H151.8l.465-8.216h-4.651ZM175.327,8.734c0-9.534-13.874-6.511-13.874-11.936,0-2.209,1.589-3.255,3.72-3.178,2.325.039,3.759,1.434,3.875,3.217h5.968c-.349-4.883-4.147-7.712-9.689-7.712-5.581,0-9.534,2.945-9.534,7.828-.039,9.8,13.913,6.278,13.913,12.13,0,1.938-1.511,3.294-4.069,3.294-2.519,0-3.953-1.434-4.108-3.6h-5.813c.078,5.116,4.418,8.061,10.037,8.061C171.917,16.833,175.327,13,175.327,8.734ZM194.665,1.8V-6.071h4.3c3.062,0,4.418,1.473,4.418,3.953,0,2.4-1.356,3.914-4.418,3.914Zm14.3-3.914c0-4.689-3.255-8.371-9.766-8.371h-9.96V16.562h5.426V6.176H199.2C206.175,6.176,208.966,1.99,208.966-2.118Zm30.228,5.077a13.509,13.509,0,0,0-13.835-13.835A13.587,13.587,0,0,0,211.485,2.959a13.6,13.6,0,0,0,13.874,13.874A13.541,13.541,0,0,0,239.194,2.959Zm-22.129,0c0-5.5,3.372-8.952,8.293-8.952,4.883,0,8.255,3.449,8.255,8.952s-3.372,9.03-8.255,9.03C220.437,11.989,217.065,8.462,217.065,2.959Zm40.5-5.038c0,2.442-1.356,4.03-4.379,4.03H248.65V-5.993h4.534C256.207-5.993,257.564-4.482,257.564-2.079Zm-14.339-8.41V16.562h5.426V6.021h2.558l5.968,10.541h6.278L256.983,5.595a7.811,7.811,0,0,0,6.162-7.79c0-4.534-3.255-8.293-9.766-8.293Zm23.408,4.379h7.208V16.562h5.426V-6.109h7.208v-4.379H266.632ZM308.8,16.562h5.736l-9.727-27.089h-6.317l-9.727,27.089h5.7l1.783-5.154h10.774Zm-3.255-9.495h-7.828l3.914-11.316Zm12.634-17.556V16.562h14.339v-4.3H323.6V-10.489Z" transform="translate(270.562 50.215)" fill="#1f8ddd"/>
    <g id="Group_14497" data-name="Group 14497" transform="translate(21.53 10.798)">
      <g id="Group_14488" data-name="Group 14488" transform="translate(0 0)">
        <path id="Path_18577" data-name="Path 18577" d="M1508.827,63.056h3.441V59.538h3.537l-.17-2.544h3.741a23.466,23.466,0,0,1,18.8,12.6c.466-.9,1.056-1.954,1.056-1.954l3.913-12.661s.892-1.733,2.494-1.1a1.954,1.954,0,0,1,1.205,2.462c-.116.335-1.171,3.628-1.171,3.628s2.538-1.652,3.335-2.151c1.482.089,6.339,0,6.339,0v2.471h3.761v3.29h3.143V97.471s-5.279-5.054-16.3-2.457c-1.113.275-2.287.824-3.529,1.261a10.41,10.41,0,0,1-2.793.823l-10.909-1.048a25.585,25.585,0,0,0-11.707-1.451c-2.618.313-5.816,1-8.185,2.872C1508.7,71.044,1508.827,63.056,1508.827,63.056Z" transform="translate(-1491.667 -44.724)" fill="#fff"/>
        <g id="Group_14480" data-name="Group 14480" transform="translate(76.747 7.763)">
          <g id="Group_14476" data-name="Group 14476" transform="translate(0.181 0.475)">
            <path id="Path_18578" data-name="Path 18578" d="M1611.7,76.2s.714,6.42-2.849,8.083-9.386-.359-10.457-3.207.595-7.725,7.249-10.576,16.4-6.892,19.957,4.277,1.011,19.84-13.75,23.168-25.929-1.663-30.681-8.554c.474-4.043,5.108-12.237,6.3-12.478,3.922,5.351,12.595,14.261,24.356,13.666s9.5-12.239,7.01-15.092S1613.72,73.47,1611.7,76.2Z" transform="translate(-1578.08 -54.749)" fill="#231f20"/>
            <path id="Path_18579" data-name="Path 18579" d="M1645.19,72.974l-14.345-.164a19.279,19.279,0,0,0-3.033-3.745c4.027.058,15.126,0,15.126,0S1643.533,72.094,1645.19,72.974Z" transform="translate(-1584.192 -54.97)" fill="#231f20"/>
            <path id="Path_18580" data-name="Path 18580" d="M1577.615,69.006v3.91h23.711a14.878,14.878,0,0,1,1.968-1.323,44.451,44.451,0,0,1,6.887-2.9c-20.927-.17-32.567,0-32.567,0Z" transform="translate(-1577.615 -54.912)" fill="#231f20"/>
            <path id="Path_18581" data-name="Path 18581" d="M1651.692,61.412s.317,3.879,4.123,3.8a5,5,0,0,0,3.8-8.157c-2.849-3.564-5.305-4.2-8.4-1.269s-13.683,13.876.888,16.886a83.679,83.679,0,0,1,8.064-5.978c-5.861,2.4-10.931,3.144-12.12,0S1651.692,61.412,1651.692,61.412Z" transform="translate(-1586.391 -52.988)" fill="#231f20"/>
            <path id="Path_18582" data-name="Path 18582" d="M1667.055,64.616c-5.466,1.49-16.4,9.8-20.315,14.551s-5.941,17.109,5.685,18.652,15.106-.713,19.381-4.871Zm-3.208,24.65c-5.7,4.87-12.389.712-11.423-3.326s6.789-9.627,9.164-9.982C1661.589,75.958,1664.678,84.395,1663.848,89.266Z" transform="translate(-1586.269 -54.387)" fill="#231f20"/>
            <path id="Path_18583" data-name="Path 18583" d="M1669.1,64.616l1.373,8.19s4.684-1.375,7.063,0c-5.551-.347-3.445,7.546,0,15.865s-4.361,19.963-18.3,19.126l10.215,8.794s14.615-5.849,15.8-17.95-1.587-11.824-5.7-19.118c-1.9-3.444,2.258-7.485,2.616-7.607C1679.9,68.829,1676.457,64.755,1669.1,64.616Z" transform="translate(-1588.309 -54.387)" fill="#231f20"/>
            <g id="Group_14474" data-name="Group 14474" transform="translate(96.396 12.269)">
              <path id="Path_18584" data-name="Path 18584" d="M1717.365,106.085c-.09-1.605-.76-25.009-.76-34.534V67.594s-2.016-.263-5.535-.534v34.153a11.75,11.75,0,0,0-9.145-5.463c-.24-1.07.258-1.19,1.2-2.02s5.454-5.584,4.383-7.246-7.48-7.486-9.979-8.911c4.4-2.972,12.953-2.853,12.953-2.853l.585-7.661a42.142,42.142,0,0,0-16.505,2.315c-5.347,2.5-8.317,4.4-3.8,8.91s9.624,7.6,8.792,8.912a46.554,46.554,0,0,1-7.843,7.721c-.949.713-1.068,1.427-.473,2.139s1.544,2.021,2.376,3.089,1.78,1.307,2.375.951,9.981-2.97,14.85,4.158c.951,2.019-.237,7.721,3.921,7.126S1717.484,108.1,1717.365,106.085Z" transform="translate(-1688.546 -66.964)" fill="#231f20"/>
              <path id="Path_18585" data-name="Path 18585" d="M1714.466,66.964l-.007.1h.006Z" transform="translate(-1691.942 -66.964)" fill="#231f20"/>
            </g>
            <path id="Path_18586" data-name="Path 18586" d="M1728.727,93.113s5.107-.95,2.612,4.753c.358,2.019-1.3,3.207-1.78,4.632s-3.683,2.494-4.872,0-3.208-6.052,0-12.707,6.89-11.94,11.879-5.673,5.7,10.182,5.584,12.44c-.119-19.245.012-24.952.012-24.952h-21.326V67.689h25.353v40.749s0,3.843-3.427,3.95c-1.851.057-3.516-.584-3.7-2.526-.479-4.979-.594-19.006-7.724-20.67C1729.795,90.023,1728.49,92.282,1728.727,93.113Z" transform="translate(-1596.381 -54.79)" fill="#231f20"/>
            <path id="Path_18587" data-name="Path 18587" d="M1705.847,115.535a5.465,5.465,0,1,1-5.464-5.465A5.469,5.469,0,0,1,1705.847,115.535Z" transform="translate(-1592.984 -60.343)" fill="#231f20"/>
            <g id="Group_14475" data-name="Group 14475" transform="translate(118.683 12.269)">
              <path id="Path_18588" data-name="Path 18588" d="M1714.193,105.269c.951,2.019-.237,7.721,3.921,7.126s2.732-4.274,2.614-6.3c-.093-1.6-.762-25.009-.762-34.531V67.611s-2.015-.265-5.535-.536v34.153" transform="translate(-1714.193 -66.979)" fill="#231f20"/>
              <path id="Path_18589" data-name="Path 18589" d="M1714.466,66.964l-.007.1h.006Z" transform="translate(-1714.229 -66.964)" fill="#231f20"/>
            </g>
            <path id="Path_18590" data-name="Path 18590" d="M1630.681,89.154a18.145,18.145,0,0,1-2.3,2.365c1.385,1.311,3.876,5.708,6.013,15.091,1.073,5.11,6.535,3.446,6.776.718s1.068-50.021,1.068-52.04,0-3.683-2.735-1.189-7.319,5.94-4.194,9.147c.818,1.31.513,14.735.513,14.735l-.513,20.432S1634.327,90.941,1630.681,89.154Z" transform="translate(-1584.267 -52.845)" fill="#231f20"/>
          </g>
          <g id="Group_14479" data-name="Group 14479">
            <path id="Path_18591" data-name="Path 18591" d="M1611.494,75.654s.714,6.419-2.848,8.082-9.386-.356-10.457-3.207.6-7.724,7.247-10.574,16.4-6.894,19.96,4.272,1.009,19.846-13.752,23.17-25.929-1.663-30.68-8.552c.473-4.041,5.106-12.24,6.294-12.473,3.921,5.346,12.593,14.255,24.356,13.66s9.5-12.239,7.009-15.092S1613.516,72.924,1611.494,75.654Z" transform="translate(-1577.873 -54.203)" fill="#f05a28"/>
            <path id="Path_18592" data-name="Path 18592" d="M1644.983,72.428l-14.342-.166a19.493,19.493,0,0,0-3.035-3.75c4.03.061,15.129,0,15.129,0S1643.328,71.544,1644.983,72.428Z" transform="translate(-1583.984 -54.423)" fill="#03263f"/>
            <path id="Path_18593" data-name="Path 18593" d="M1577.407,68.454V72.37h23.716a14.491,14.491,0,0,1,1.966-1.323,44.392,44.392,0,0,1,6.89-2.9c-20.929-.174-32.572,0-32.572,0Z" transform="translate(-1577.407 -54.365)" fill="#03263f"/>
            <path id="Path_18594" data-name="Path 18594" d="M1651.489,60.865s.317,3.877,4.117,3.8a5.007,5.007,0,0,0,3.8-8.161c-2.852-3.561-5.3-4.195-8.395-1.264s-13.686,13.878.886,16.886a83.658,83.658,0,0,1,8.062-5.978c-5.858,2.4-10.928,3.145-12.116,0S1651.489,60.865,1651.489,60.865Z" transform="translate(-1586.184 -52.441)" fill="#009cb7"/>
            <path id="Path_18595" data-name="Path 18595" d="M1666.851,64.07c-5.468,1.49-16.395,9.794-20.316,14.55s-5.942,17.108,5.685,18.652,15.105-.713,19.382-4.872Zm-3.208,24.648c-5.7,4.871-12.389.714-11.423-3.326s6.788-9.627,9.164-9.978C1661.383,75.414,1664.475,83.849,1663.643,88.718Z" transform="translate(-1586.062 -53.841)" fill="#009cb7"/>
            <path id="Path_18596" data-name="Path 18596" d="M1668.889,64.07l1.374,8.189s4.686-1.376,7.06,0c-5.548-.348-3.446,7.55,0,15.865s-4.358,19.96-18.293,19.129l10.214,8.789s14.615-5.848,15.8-17.951-1.584-11.82-5.7-19.116c-1.9-3.444,2.255-7.483,2.614-7.605C1679.7,68.285,1676.255,64.209,1668.889,64.07Z" transform="translate(-1588.102 -53.841)" fill="#03263f"/>
            <g id="Group_14477" data-name="Group 14477" transform="translate(96.399 12.266)">
              <path id="Path_18597" data-name="Path 18597" d="M1717.162,105.538c-.093-1.606-.763-25.007-.763-34.531V67.046s-2.016-.262-5.532-.534v34.155a11.763,11.763,0,0,0-9.149-5.464c-.235-1.071.26-1.186,1.2-2.02s5.455-5.581,4.385-7.246-7.485-7.485-9.979-8.911c4.4-2.971,12.949-2.855,12.949-2.855l.588-7.659a42.223,42.223,0,0,0-16.509,2.313c-5.342,2.5-8.314,4.4-3.8,8.912s9.622,7.607,8.792,8.911a46.624,46.624,0,0,1-7.841,7.723c-.951.713-1.069,1.426-.475,2.14s1.543,2.017,2.374,3.086,1.784,1.308,2.377.952,9.982-2.97,14.853,4.158c.95,2.017-.24,7.721,3.918,7.127S1717.281,107.561,1717.162,105.538Z" transform="translate(-1688.34 -66.415)" fill="#f05a28"/>
              <path id="Path_18598" data-name="Path 18598" d="M1714.262,66.414l-.008.1h.008Z" transform="translate(-1691.736 -66.414)" fill="#231f20"/>
            </g>
            <path id="Path_18599" data-name="Path 18599" d="M1728.525,92.567s5.1-.952,2.608,4.751c.356,2.019-1.308,3.206-1.78,4.633s-3.684,2.495-4.871,0-3.209-6.05,0-12.709,6.892-11.938,11.879-5.673,5.7,10.185,5.584,12.443c-.119-19.248.012-24.951.012-24.951h-21.33v-3.92h25.357v40.75s0,3.842-3.429,3.95c-1.847.057-3.514-.583-3.7-2.525-.477-4.977-.594-19.007-7.726-20.669C1729.59,89.476,1728.285,91.734,1728.525,92.567Z" transform="translate(-1596.172 -54.243)" fill="#009cb7"/>
            <path id="Path_18600" data-name="Path 18600" d="M1705.644,114.986a5.466,5.466,0,1,1-5.468-5.463A5.468,5.468,0,0,1,1705.644,114.986Z" transform="translate(-1592.776 -59.796)" fill="#f05a28"/>
            <g id="Group_14478" data-name="Group 14478" transform="translate(118.688 12.266)">
              <path id="Path_18601" data-name="Path 18601" d="M1713.99,104.724c.952,2.015-.238,7.723,3.921,7.125s2.73-4.274,2.612-6.3c-.091-1.6-.762-25.007-.762-34.531V67.061s-2.015-.259-5.532-.531v34.153" transform="translate(-1713.99 -66.429)" fill="#009cb7"/>
              <path id="Path_18602" data-name="Path 18602" d="M1714.262,66.414l-.008.1.008,0Z" transform="translate(-1714.024 -66.414)" fill="#045ca9"/>
            </g>
            <path id="Path_18603" data-name="Path 18603" d="M1630.477,88.606a18.043,18.043,0,0,1-2.3,2.366c1.385,1.311,3.88,5.707,6.019,15.094,1.068,5.107,6.531,3.446,6.77.711s1.07-50.016,1.07-52.035,0-3.683-2.732-1.188-7.323,5.939-4.2,9.147c.82,1.31.515,14.732.515,14.732l-.515,20.435S1634.124,90.394,1630.477,88.606Z" transform="translate(-1584.059 -52.299)" fill="#009cb7"/>
          </g>
        </g>
        <path id="Path_18604" data-name="Path 18604" d="M1501.086,109.757a27.794,27.794,0,0,0,9.2-3.067c4.042-2.394,8.455-6.059,13.093-4.49s9.2,1.049,11.972,1.571,7.929.824-1.422,4.341c-3.666.746-9.053.3-9.127.822s4.039,1.047,7.781.822,6.884-.672,7.931-4.639c2.095-1.2,6.584-2.394,9.727-2.918s6.508.423,1.647,3.615c-2.057,1.351-4.728,2.245-7.784,3.868-4.169,2.216-9.006,4.965-13.54,4.489,0,0-9.654-1.314-14.291.053a38.38,38.38,0,0,0-7.305,2.867S1502.359,111.628,1501.086,109.757Z" transform="translate(-1490.661 -51.024)" fill="#f05a28"/>
        <path id="Path_18605" data-name="Path 18605" d="M1528.706,97.455s-10.913-4.415-19.89,1.421c-.3-33.518,0-34.415,0-34.415h2.543V94.837S1519.491,91.172,1528.706,97.455Z" transform="translate(-1491.656 -46.129)" fill="#03263f"/>
        <path id="Path_18606" data-name="Path 18606" d="M1530.077,97.15s-7.331-7.107-17.281-4.716V60.413h2.543V88.545S1525.291,88.62,1530.077,97.15Z" transform="translate(-1492.195 -45.599)" fill="#929497"/>
        <path id="Path_18607" data-name="Path 18607" d="M1531.585,96.766s-5.488-9.208-14.541-9.879c-.226-28.429-.375-29.4-.375-29.4h3.741V84.72S1525.4,83.972,1531.585,96.766Z" transform="translate(-1492.703 -45.215)" fill="#f05a28"/>
        <path id="Path_18608" data-name="Path 18608" d="M1532.149,96.766s-5.687-11.9-11.175-12.047V57.485a23.589,23.589,0,0,1,18.456,11.523C1533.446,80.08,1531.154,90.405,1532.149,96.766Z" transform="translate(-1493.266 -45.215)" fill="#fff"/>
        <path id="Path_18609" data-name="Path 18609" d="M1545,97.713s.568-1.253,1.554-2.981c1.97-3.441,5.608-8.767,9.743-9.813.223-14.44,0-26.486,0-26.486S1544.847,66.813,1545,97.713Z" transform="translate(-1496.414 -45.34)" fill="#fff"/>
        <path id="Path_18610" data-name="Path 18610" d="M1546.787,94.732s6.332-7.271,13.537-7.418c.021-18.108,0-28.881,0-28.881h-3.794V84.918A21.918,21.918,0,0,0,1546.787,94.732Z" transform="translate(-1496.649 -45.34)" fill="#f05a28"/>
        <path id="Path_18611" data-name="Path 18611" d="M1546.2,97.263s6.136-8.53,14.964-8.53c.225-21.4,0-27.457,0-27.457h2.843V92.623A20.612,20.612,0,0,0,1546.2,97.263Z" transform="translate(-1496.572 -45.712)" fill="#929497"/>
        <path id="Path_18612" data-name="Path 18612" d="M1547.494,97.759s10.249-6.585,17.432-2.918c.3-28.881,0-29.779,0-29.779h2.4V98.955S1560.214,92.747,1547.494,97.759Z" transform="translate(-1496.741 -46.208)" fill="#03263f"/>
        <path id="Path_18613" data-name="Path 18613" d="M1543.047,97.713l-8.181-.823s1.4-25.324,13.481-35.753a34.164,34.164,0,0,1,4.077-2.705C1544.843,71.027,1541.85,80.9,1543.047,97.713Z" transform="translate(-1495.087 -45.34)" fill="#03263f"/>
        <g id="Group_14486" data-name="Group 14486" transform="translate(41.842 8.984)">
          <g id="Group_14481" data-name="Group 14481" transform="translate(0.08 32.533)">
            <path id="Path_18614" data-name="Path 18614" d="M1539.149,95.818c.764-1.342,1.567-2.782,1.935-3.608-.3.037-3.622-1.008-3.622-1.008l-.09,4.187A8.584,8.584,0,0,0,1539.149,95.818Z" transform="translate(-1537.337 -91.15)" fill="#fddbc5"/>
            <path id="Path_18615" data-name="Path 18615" d="M1539.165,95.851l-.024,0a8.6,8.6,0,0,1-1.786-.43l-.022-.006v-.031l.089-4.239.048.014a36.126,36.126,0,0,0,3.605,1.006l.071-.006-.029.061c-.316.7-.966,1.916-1.936,3.611Zm-1.757-.5a8.166,8.166,0,0,0,1.715.418c.934-1.641,1.572-2.823,1.9-3.529-.511-.051-3.116-.866-3.525-.992Z" transform="translate(-1537.331 -91.142)" fill="#fde0c9"/>
          </g>
          <path id="Path_18616" data-name="Path 18616" d="M1541.108,87.315l-.012,0c-.3.038-3.495-.965-3.629-1l-.02-.009.007-.021c.091-.3,9.18-30.545,9.409-31.159a2.308,2.308,0,0,1,.513-.783,1.781,1.781,0,0,1,2.017-.466,1.989,1.989,0,0,1,1.2,2.462Zm-3.612-1.031c.263.076,3.237,1.008,3.583,1l9.48-30.953a1.927,1.927,0,0,0-1.185-2.416,1.737,1.737,0,0,0-1.97.459,2.282,2.282,0,0,0-.509.762C1546.672,55.746,1537.764,85.383,1537.5,86.285Z" transform="translate(-1537.267 -53.708)" fill="#f47e20"/>
          <g id="Group_14482" data-name="Group 14482" transform="translate(0.156 0.005)">
            <path id="Path_18617" data-name="Path 18617" d="M1541.1,87.3c-.3.036-3.622-1.008-3.622-1.008s9.177-30.537,9.409-31.162a1.947,1.947,0,1,1,3.7,1.2Z" transform="translate(-1537.425 -53.716)" fill="url(#linear-gradient)"/>
            <path id="Path_18618" data-name="Path 18618" d="M1541.12,87.332l-.023,0a37.547,37.547,0,0,1-3.64-1.011l-.038-.007.014-.037c.088-.308,9.176-30.551,9.4-31.164a2.379,2.379,0,0,1,.527-.784,1.787,1.787,0,0,1,2.036-.474,2.014,2.014,0,0,1,1.22,2.484Zm-3.6-1.067c.924.29,3.208.981,3.545.992l9.479-30.937a1.916,1.916,0,0,0-1.17-2.39,1.728,1.728,0,0,0-1.954.454,2.256,2.256,0,0,0-.5.759C1546.69,55.748,1537.886,85.047,1537.516,86.265Z" transform="translate(-1537.418 -53.71)" fill="#f47920"/>
          </g>
          <g id="Group_14483" data-name="Group 14483" transform="translate(0 36.635)">
            <path id="Path_18619" data-name="Path 18619" d="M1539.108,96.494c-.935,1.636-1.814,3.112-1.814,3.112l.073-3.673A7.252,7.252,0,0,0,1539.108,96.494Z" transform="translate(-1537.246 -95.872)" fill="#231f20"/>
            <path id="Path_18620" data-name="Path 18620" d="M1537.239,99.744l.082-3.881.054.028a7.441,7.441,0,0,0,1.735.553l.053.014-.031.046c-.922,1.621-1.809,3.1-1.817,3.111Z" transform="translate(-1537.239 -95.863)" fill="#929497"/>
          </g>
          <g id="Group_14484" data-name="Group 14484" transform="translate(1.372 1.786)">
            <path id="Path_18621" data-name="Path 18621" d="M1549.7,56.146a3.3,3.3,0,0,1-1.3-.323l-9.522,31.118,1.3.377Z" transform="translate(-1538.826 -55.767)" fill="url(#linear-gradient-2)"/>
            <path id="Path_18622" data-name="Path 18622" d="M1540.2,87.36l-1.379-.4,9.553-31.2.039.02a3.332,3.332,0,0,0,1.28.323l.052,0-.016.054Zm-1.279-.454,1.231.357,9.489-31.083a3.341,3.341,0,0,1-1.217-.309Z" transform="translate(-1538.818 -55.759)" fill="#ec1b2e"/>
          </g>
          <g id="Group_14485" data-name="Group 14485" transform="translate(9.633)">
            <path id="Path_18623" data-name="Path 18623" d="M1548.38,54.969a3.316,3.316,0,0,0,.5.349,7.077,7.077,0,0,0,.75.247s.33.143.56.214a2.33,2.33,0,0,0,.748.1,4.572,4.572,0,0,0,.518.171c.191.04.6.082.6.082a2.066,2.066,0,0,0-1.5-2.315C1549.337,53.491,1548.69,54.54,1548.38,54.969Z" transform="translate(-1548.332 -53.711)" fill="#abacb0"/>
            <path id="Path_18624" data-name="Path 18624" d="M1552.08,56.161h-.033c-.014,0-.414-.042-.6-.083a4.613,4.613,0,0,1-.515-.166,2.722,2.722,0,0,1-.755-.1,5.468,5.468,0,0,1-.568-.21c-.021-.01-.557-.162-.752-.25a3.109,3.109,0,0,1-.505-.357l-.029-.021.076-.109a4.247,4.247,0,0,1,.464-.585,1.667,1.667,0,0,1,1.7-.512,2.1,2.1,0,0,1,1.523,2.359Zm-3.649-1.205a2.782,2.782,0,0,0,.464.321,7.448,7.448,0,0,0,.74.243,5.172,5.172,0,0,0,.562.214,2.54,2.54,0,0,0,.731.1l.012,0,.008.005s.33.126.516.169c.154.032.449.064.554.075a2.006,2.006,0,0,0-1.479-2.235,1.565,1.565,0,0,0-1.615.49,4.639,4.639,0,0,0-.46.572Z" transform="translate(-1548.325 -53.704)" fill="#7d7e80"/>
          </g>
          <path id="Path_18625" data-name="Path 18625" d="M1549.873,55.862" transform="translate(-1538.894 -53.987)" fill="none" stroke="#ec4d24" stroke-width="0.682"/>
        </g>
        <path id="Path_18626" data-name="Path 18626" d="M1523.855,64.41s8.283.562,13.664,6.31A15.579,15.579,0,0,0,1523.855,64.41Z" transform="translate(-1493.644 -46.118)" fill="#f9b889"/>
        <path id="Path_18627" data-name="Path 18627" d="M1549.527,73.856a10.662,10.662,0,0,1,7.118-1.532A7.338,7.338,0,0,0,1549.527,73.856Z" transform="translate(-1497.007 -47.115)" fill="#5a5a5a"/>
        <path id="Path_18628" data-name="Path 18628" d="M1550.5,70.339a8.128,8.128,0,0,1,5.422-1.168A5.589,5.589,0,0,0,1550.5,70.339Z" transform="translate(-1497.135 -46.712)" fill="#5a5a5a"/>
        <path id="Path_18629" data-name="Path 18629" d="M1548.088,77.863a9.963,9.963,0,0,1,8.126-2.146S1551.116,73.845,1548.088,77.863Z" transform="translate(-1496.819 -47.547)" fill="#5a5a5a"/>
        <path id="Path_18630" data-name="Path 18630" d="M1547.458,82.8a9.572,9.572,0,0,1,8.622-.786S1550.972,79.044,1547.458,82.8Z" transform="translate(-1496.737 -48.283)" fill="#5a5a5a"/>
        <path id="Path_18631" data-name="Path 18631" d="M1547.458,80.126a9.574,9.574,0,0,1,8.622-.786S1550.972,76.367,1547.458,80.126Z" transform="translate(-1496.737 -47.933)" fill="#5a5a5a"/>
        <path id="Path_18632" data-name="Path 18632" d="M1547.278,85.569a9.576,9.576,0,0,1,8.621-.788S1550.793,81.808,1547.278,85.569Z" transform="translate(-1496.713 -48.646)" fill="#5a5a5a"/>
        <path id="Path_18633" data-name="Path 18633" d="M1546.7,89.3a10.86,10.86,0,0,1,9.28-1.089S1550.592,85.289,1546.7,89.3Z" transform="translate(-1496.637 -49.106)" fill="#5a5a5a"/>
        <path id="Path_18634" data-name="Path 18634" d="M1523.389,68.884s7.688-.349,13.2,4.773A13.881,13.881,0,0,0,1523.389,68.884Z" transform="translate(-1493.582 -46.675)" fill="#f9b889"/>
        <path id="Path_18635" data-name="Path 18635" d="M1523.023,73.058a16.456,16.456,0,0,1,12.048,3.911S1530.365,70.926,1523.023,73.058Z" transform="translate(-1493.535 -47.196)" fill="#f9b889"/>
        <path id="Path_18636" data-name="Path 18636" d="M1522.264,76.683a15.253,15.253,0,0,1,11.222,4.712S1529.405,75.049,1522.264,76.683Z" transform="translate(-1493.436 -47.696)" fill="#f9b889"/>
        <path id="Path_18637" data-name="Path 18637" d="M1521.555,80.343a15.012,15.012,0,0,1,11.112,4.708S1528.628,78.708,1521.555,80.343Z" transform="translate(-1493.342 -48.175)" fill="#f9b889"/>
        <path id="Path_18638" data-name="Path 18638" d="M1521.518,84.973s6.248-.289,10.73,3.933A11.2,11.2,0,0,0,1521.518,84.973Z" transform="translate(-1493.337 -48.789)" fill="#f9b889"/>
        <g id="Group_14487" data-name="Group 14487">
          <path id="Path_18639" data-name="Path 18639" d="M1567.75,81.535a38.42,38.42,0,0,1-7.143,23.866,39.35,39.35,0,1,1-9.431-54.512q.97.692,1.888,1.429a39.49,39.49,0,0,1,9.468,11.072c.49.85,1.79,3.478,1.368,2.6-4.167-8.715-12-14.581-12-14.581a36.355,36.355,0,1,0,15.05,28.812,22.507,22.507,0,0,0-.69-5.714c.329.952.472,1.368.671,2.063A35.363,35.363,0,0,1,1567.75,81.535Z" transform="translate(-1489.128 -43.382)" fill="#03263f"/>
          <path id="Path_18640" data-name="Path 18640" d="M1567.451,81.41a38.421,38.421,0,0,1-7.144,23.861,39.349,39.349,0,1,1-9.429-54.508c.646.459,1.273.937,1.884,1.428a39.445,39.445,0,0,1,9.471,11.073c.489.848,1.789,3.477,1.365,2.6-4.166-8.715-12-14.581-12-14.581a36.347,36.347,0,1,0,15.052,28.812,22.6,22.6,0,0,0-.689-5.713c.328.952.468,1.369.67,2.062A35.635,35.635,0,0,1,1567.451,81.41Z" transform="translate(-1489.089 -43.365)" fill="#f05a28"/>
        </g>
      </g>
      <g id="Group_14491" data-name="Group 14491" transform="translate(76.397 74.312)">
        <g id="Group_14490" data-name="Group 14490">
          <g id="Group_14489" data-name="Group 14489">
            <path id="Path_18641" data-name="Path 18641" d="M1577.005,135.649v-6.591h4.639v.789h-3.575v1.959h3.179v.772h-3.179v2.283h3.849v.789Z" transform="translate(-1577.005 -128.905)" fill="#2d5b7a"/>
            <path id="Path_18642" data-name="Path 18642" d="M1596.764,132.339a3.369,3.369,0,0,1-.307,1.488,2.813,2.813,0,0,1-.866,1.046,3.86,3.86,0,0,1-1.338.619,6.718,6.718,0,0,1-1.711.205q-.46,0-1.016-.035a6.782,6.782,0,0,1-1-.127v-6.392a6.77,6.77,0,0,1,1-.129q.556-.034,1.016-.033a6.8,6.8,0,0,1,1.711.2,3.911,3.911,0,0,1,1.338.619,2.827,2.827,0,0,1,.866,1.046A3.381,3.381,0,0,1,1596.764,132.339Zm-4.135,2.55a3.288,3.288,0,0,0,2.26-.672,2.74,2.74,0,0,0,0-3.757,3.293,3.293,0,0,0-2.26-.67c-.3,0-.533,0-.7.01s-.279.012-.345.019v5.042c.066.005.181.012.345.019S1592.329,134.888,1592.628,134.888Z" transform="translate(-1578.776 -128.895)" fill="#2d5b7a"/>
            <path id="Path_18643" data-name="Path 18643" d="M1608.654,135.791a3.78,3.78,0,0,1-1.3-.2,2.432,2.432,0,0,1-.9-.548,2.165,2.165,0,0,1-.521-.822,3.015,3.015,0,0,1-.169-1.027v-4.137h1.062v4.032a1.832,1.832,0,0,0,.5,1.436,1.911,1.911,0,0,0,1.317.447,2.341,2.341,0,0,0,.74-.11,1.489,1.489,0,0,0,.577-.337,1.525,1.525,0,0,0,.372-.585,2.465,2.465,0,0,0,.132-.852v-4.032h1.064V133.2a3.027,3.027,0,0,1-.171,1.027,2.136,2.136,0,0,1-.524.822,2.5,2.5,0,0,1-.9.548A3.731,3.731,0,0,1,1608.654,135.791Z" transform="translate(-1580.774 -128.905)" fill="#2d5b7a"/>
            <path id="Path_18644" data-name="Path 18644" d="M1624.049,135.768a4.413,4.413,0,0,1-1.458-.228,3.168,3.168,0,0,1-1.129-.665,2.941,2.941,0,0,1-.729-1.081,3.91,3.91,0,0,1-.258-1.469,3.54,3.54,0,0,1,.29-1.47,3.166,3.166,0,0,1,.784-1.079,3.382,3.382,0,0,1,1.151-.666,4.264,4.264,0,0,1,1.405-.228,5.725,5.725,0,0,1,.849.057,6.039,6.039,0,0,1,.658.132,3.6,3.6,0,0,1,.454.154c.117.051.2.089.241.113l-.307.76a1.971,1.971,0,0,0-.285-.123c-.124-.044-.263-.089-.421-.133a4.192,4.192,0,0,0-.517-.11,3.715,3.715,0,0,0-.565-.043,3.05,3.05,0,0,0-1.085.182,2.257,2.257,0,0,0-.823.522,2.32,2.32,0,0,0-.521.833,3.134,3.134,0,0,0-.181,1.1,3.48,3.48,0,0,0,.158,1.075,2.3,2.3,0,0,0,.478.832,2.133,2.133,0,0,0,.8.537,2.97,2.97,0,0,0,1.113.19,4.7,4.7,0,0,0,1.218-.132,6.026,6.026,0,0,0,.722-.238l.274.76a1.477,1.477,0,0,1-.274.119,4.034,4.034,0,0,1-.492.138c-.2.044-.429.082-.691.115A7.294,7.294,0,0,1,1624.049,135.768Z" transform="translate(-1582.701 -128.882)" fill="#2d5b7a"/>
            <path id="Path_18645" data-name="Path 18645" d="M1640.192,135.649q-.188-.429-.353-.841c-.11-.276-.222-.557-.34-.843h-3.445l-.69,1.684h-1.108q.439-1.047.823-1.935c.257-.594.506-1.156.751-1.689s.488-1.041.729-1.527.493-.965.757-1.44h.975q.4.712.758,1.44t.728,1.527q.369.8.751,1.689t.824,1.935Zm-1-2.444q-.351-.829-.7-1.6t-.721-1.489q-.383.714-.729,1.489t-.685,1.6Z" transform="translate(-1584.507 -128.905)" fill="#2d5b7a"/>
            <path id="Path_18646" data-name="Path 18646" d="M1654.075,129.058v.8h-2.393v5.793h-1.063v-5.793h-2.391v-.8Z" transform="translate(-1586.337 -128.905)" fill="#2d5b7a"/>
            <path id="Path_18647" data-name="Path 18647" d="M1662.556,129.058h1.063v6.591h-1.063Z" transform="translate(-1588.215 -128.905)" fill="#2d5b7a"/>
            <path id="Path_18648" data-name="Path 18648" d="M1671.908,132.326a3.605,3.605,0,0,1,.292-1.494,3.068,3.068,0,0,1,.79-1.079,3.364,3.364,0,0,1,1.162-.652,4.491,4.491,0,0,1,1.41-.219,4.355,4.355,0,0,1,1.387.219,3.328,3.328,0,0,1,1.146.652,3.075,3.075,0,0,1,.783,1.079,3.973,3.973,0,0,1,0,2.988,3.08,3.08,0,0,1-.783,1.078,3.309,3.309,0,0,1-1.146.652,4.328,4.328,0,0,1-1.387.218,4.463,4.463,0,0,1-1.41-.218,3.345,3.345,0,0,1-1.162-.652,3.072,3.072,0,0,1-.79-1.078A3.617,3.617,0,0,1,1671.908,132.326Zm1.12,0a3.238,3.238,0,0,0,.173,1.089,2.344,2.344,0,0,0,.5.833,2.158,2.158,0,0,0,.789.528,2.839,2.839,0,0,0,1.049.184,2.785,2.785,0,0,0,1.04-.184,2.184,2.184,0,0,0,.785-.528,2.374,2.374,0,0,0,.5-.833,3.484,3.484,0,0,0,0-2.179,2.388,2.388,0,0,0-.5-.832,2.183,2.183,0,0,0-.785-.528,2.768,2.768,0,0,0-1.04-.186,2.822,2.822,0,0,0-1.049.186,2.157,2.157,0,0,0-.789.528,2.358,2.358,0,0,0-.5.832A3.249,3.249,0,0,0,1673.028,132.326Z" transform="translate(-1589.439 -128.882)" fill="#2d5b7a"/>
            <path id="Path_18649" data-name="Path 18649" d="M1693.6,135.649c-.163-.234-.346-.5-.554-.789s-.433-.6-.674-.909-.493-.633-.753-.956-.516-.636-.772-.937-.505-.585-.746-.852-.465-.5-.669-.7v5.145h-1.041v-6.591h.844q.514.474,1.1,1.108c.392.421.778.856,1.163,1.3s.745.886,1.086,1.318.626.814.862,1.151v-4.878h1.041v6.591Z" transform="translate(-1591.599 -128.905)" fill="#2d5b7a"/>
            <path id="Path_18650" data-name="Path 18650" d="M1713.118,135.649v-6.591h4.64v.789h-3.576v1.959h3.181v.772h-3.181v2.283h3.85v.789Z" transform="translate(-1594.838 -128.905)" fill="#2d5b7a"/>
            <path id="Path_18651" data-name="Path 18651" d="M1730.352,132.88c.119.127.266.295.445.5s.365.435.555.685.379.512.563.786a7.976,7.976,0,0,1,.479.789h-1.162c-.147-.241-.308-.486-.479-.732s-.345-.484-.52-.71-.349-.435-.521-.632-.327-.368-.468-.514c-.094.007-.19.009-.29.009H1727.7v2.578h-1.064v-6.5a6.773,6.773,0,0,1,1-.129q.555-.034,1.015-.033a4.655,4.655,0,0,1,2.442.522,1.72,1.72,0,0,1,.839,1.561,1.668,1.668,0,0,1-.4,1.123A2.393,2.393,0,0,1,1730.352,132.88Zm-1.613-3.091q-.679,0-1.039.029V132.3h.756a9.331,9.331,0,0,0,.987-.048,2.521,2.521,0,0,0,.74-.181,1.059,1.059,0,0,0,.467-.376,1.123,1.123,0,0,0,.163-.641,1.089,1.089,0,0,0-.163-.618,1.135,1.135,0,0,0-.445-.39,2.122,2.122,0,0,0-.658-.2A5.384,5.384,0,0,0,1728.739,129.789Z" transform="translate(-1596.61 -128.895)" fill="#2d5b7a"/>
            <path id="Path_18652" data-name="Path 18652" d="M1742.9,128.981a4.731,4.731,0,0,1,2.463.527,1.729,1.729,0,0,1,.862,1.575,1.891,1.891,0,0,1-.237.975,1.771,1.771,0,0,1-.681.655,3.346,3.346,0,0,1-1.079.367,8.168,8.168,0,0,1-1.437.115h-.844v2.444h-1.065v-6.5a6.788,6.788,0,0,1,1-.129Q1742.442,128.98,1742.9,128.981Zm.088.808c-.452,0-.8.01-1.04.029V132.4h.8a7.152,7.152,0,0,0,.987-.061,2.517,2.517,0,0,0,.742-.209,1.135,1.135,0,0,0,.466-.4,1.2,1.2,0,0,0,.163-.656,1.079,1.079,0,0,0-.168-.627,1.215,1.215,0,0,0-.462-.4,2.2,2.2,0,0,0-.674-.2A5.5,5.5,0,0,0,1742.99,129.789Z" transform="translate(-1598.477 -128.895)" fill="#2d5b7a"/>
          </g>
        </g>
      </g>
    </g>
    <g id="Rectangle_4566" data-name="Rectangle 4566" transform="translate(-0.005 -0.09)" fill="none" stroke="#1f8ddd" stroke-width="1">
      <path d="M10,0H631a0,0,0,0,1,0,0V94a10,10,0,0,1-10,10H10A10,10,0,0,1,0,94V10A10,10,0,0,1,10,0Z" stroke="none"/>
      <path d="M10,.5H630a.5.5,0,0,1,.5.5V94a9.5,9.5,0,0,1-9.5,9.5H10A9.5,9.5,0,0,1,.5,94V10A9.5,9.5,0,0,1,10,.5Z" fill="none"/>
    </g>
  </g>
</svg>
