<svg xmlns="http://www.w3.org/2000/svg" width="87.273" height="70" viewBox="0 0 87.273 70"><defs><style>.a{fill:#d1e4ff;}.b{fill:#b0b5ca;}.c{fill:#f4f8fc;}.d{fill:#ccd3df;}.e{fill:#43a2ff;}.f{fill:#ff981d;}.g{fill:#9be147;}.h{fill:#fff;}.i{fill:#50dd5a;}.j{fill:#fe8700;}.k{fill:#f43b3b;}</style></defs><g transform="translate(-16 -63.5)"><path class="a" d="M103.273,152.561V202.4a3.965,3.965,0,0,1-3.967,3.964H19.967A3.965,3.965,0,0,1,16,202.4V152.561Z" transform="translate(0 -72.868)"/><path class="b" d="M103.273,67.464V79.693H16V67.464A3.965,3.965,0,0,1,19.967,63.5H99.305a3.965,3.965,0,0,1,3.967,3.964Z" transform="translate(0)"/><path class="c" d="M21.455,202.4V152.56H16V202.4a3.966,3.966,0,0,0,3.967,3.964h5.455A3.966,3.966,0,0,1,21.455,202.4Z" transform="translate(0 -72.867)"/><path class="d" d="M25.422,63.5H19.967A3.965,3.965,0,0,0,16,67.464V79.693h5.455V67.464A3.965,3.965,0,0,1,25.422,63.5Z" transform="translate(0 0)"/><path class="e" d="M97.515,191.3v27.3a.364.364,0,0,1-.364.364H54.084a.365.365,0,0,1-.364-.364V191.3a.365.365,0,0,1,.364-.364H97.151A.364.364,0,0,1,97.515,191.3Z" transform="translate(-30.862 -104.27)"/><rect class="f" width="21.055" height="15.493" rx="2" transform="translate(75.011 86.671)"/><rect class="g" width="21.055" height="15.493" rx="2" transform="translate(75.011 110.24)"/><path class="h" d="M158.04,244.8a.364.364,0,0,1,0,.631l-8.195,4.725a.364.364,0,0,1-.545-.315v-9.453a.364.364,0,0,1,.545-.315Z" transform="translate(-109.064 -144.428)"/><path class="i" d="M168.828,90.141a3.114,3.114,0,1,1-3.118,3.115A3.114,3.114,0,0,1,168.828,90.141Z" transform="translate(-122.49 -21.797)"/><path class="j" d="M107.686,90.141a3.114,3.114,0,1,1-3.116,3.115A3.114,3.114,0,0,1,107.686,90.141Z" transform="translate(-72.466 -21.797)"/><path class="k" d="M46.546,90.141a3.114,3.114,0,1,1-3.116,3.115,3.114,3.114,0,0,1,3.116-3.115Z" transform="translate(-22.443 -21.797)"/></g></svg>